<svg height='200' width='200'  fill="#ffffff" xmlns="http://www.w3.org/2000/svg" xmlns:xlink="http://www.w3.org/1999/xlink" version="1.1" x="0px" y="0px" viewBox="0 0 100 100" enable-background="new 0 0 100 100" xml:space="preserve"><path d="M83.6,21.1L50,28l-33.6-7c-1.391-0.232-2.4,0.691-2.4,2v51c0,0.9,0.7,1.8,1.6,2l34,7l0,0c0.235,0,0.543,0,0.8,0l0,0l34-7  c0.899-0.2,1.6-1,1.6-2V23C86,21.82,84.999,20.867,83.6,21.1z M18,25.5l31,6.4v46.9L18,72.4V25.5z M82,72.4L51,78.8v-47l31-6.4V72.4  z M19,18.8c0.1-0.5,0.6-0.9,1.2-0.8L50,24l29.8-6c0.5-0.1,1.101,0.2,1.2,0.8c0.1,0.5-0.2,1.1-0.8,1.2l-30,6c-0.175,0-0.225,0-0.4,0  l-30-6C19.3,19.9,18.9,19.3,19,18.8z"></path></svg>