<?xml version="1.0" encoding="UTF-8"?>
<svg width="58px" height="99px" viewBox="0 0 58 99" version="1.1" xmlns="http://www.w3.org/2000/svg" xmlns:xlink="http://www.w3.org/1999/xlink">
    <g id="location" stroke="none" stroke-width="1" fill="none" fill-rule="evenodd">
        <g transform="translate(2.000000, 4.000000)" fill="#FFFFFF" fill-rule="nonzero" id="Shape">
            <path d="M26,0.01663 C11.73036,0.01663 0,11.14413 0,27.01663 C0,33.21233 3.43482,41.29303 5.5,45.82912 L24.1875,86.82912 C24.516158,87.533284 25.2229137,87.9833627 26,87.9833627 C26.7770863,87.9833627 27.483842,87.533284 27.8125,86.82912 L46.5,45.82912 C48.56514,41.29313 52,33.21233 52,27.01663 C52,11.14413 40.26963,0.01663 26,0.01663 Z M26,4.01663 C38.24004,4.01663 48,13.06573 48,27.01663 C48,31.56943 44.82341,39.82463 42.84375,44.17282 L26,81.20412 L9.15625,44.17282 C7.17656,39.82463 4,31.56953 4,27.01663 C4,13.06573 13.75995,4.01663 26,4.01663 Z M26,12.01663 C18.29169,12.01663 12,18.30833 12,26.01663 C12,33.72483 18.29167,40.01663 26,40.01663 C33.70832,40.01663 40,33.72483 40,26.01663 C40,18.30833 33.7083,12.01663 26,12.01663 Z M26,16.01663 C31.54653,16.01663 36,20.47013 36,26.01663 C36,31.56303 31.54651,36.01663 26,36.01663 C20.45348,36.01663 16,31.56303 16,26.01663 C16,20.47013 20.45346,16.01663 26,16.01663 Z"></path>
        </g>
    </g>
</svg>