<?xml version="1.0" encoding="UTF-8"?>
<svg width="282px" height="145px" viewBox="0 0 282 145" version="1.1" xmlns="http://www.w3.org/2000/svg" xmlns:xlink="http://www.w3.org/1999/xlink">
    <!-- Generator: Sketch 50.2 (55047) - http://www.bohemiancoding.com/sketch -->
    <title>qr</title>
    <desc>Created with Sketch.</desc>
    <defs></defs>
    <g id="qr" stroke="none" stroke-width="1" fill="none" fill-rule="evenodd">
        <g transform="translate(97.000000, 6.000000)" fill="#000000" fill-rule="nonzero" id="Shape">
            <path d="M17,63 L25,63 L25,71 L17,71 L17,63 Z M9,55 L33,55 L33,79 L9,79 L9,55 Z M13,75 L29,75 L29,59 L13,59 L13,75 Z M71,17 L63,17 L63,25 L71,25 L71,17 Z M79,9 L79,33 L55,33 L55,9 L79,9 Z M75,13 L59,13 L59,29 L75,29 L75,13 Z M25,17 L17,17 L17,25 L25,25 L25,17 Z M33,33 L9,33 L9,9 L33,9 L33,33 Z M29,13 L13,13 L13,29 L29,29 L29,13 Z M31,35.6 L9.5,35.6 L9.5,52.3 L12.5,52.3 L12.5,38.6 L31,38.6 L31,35.6 Z M18.3,51.2 L18.3,43.1 L13.5,43.1 L13.5,46.1 L15.3,46.1 L15.3,51.2 L18.3,51.2 Z M22.5,42.4 L35.4,42.4 L35.4,39.4 L19.5,39.4 L19.5,52.2 L22.5,52.2 L22.5,42.4 Z M43.5,42.4 L48.8,42.4 L48.8,39.4 L43.5,39.4 L43.5,26.7 L40.5,26.7 L40.5,31 L36.5,31 L36.5,34 L40.5,34 L40.5,50.7 L29.7,50.7 L29.7,47.5 L26.7,47.5 L26.7,53.7 L43.5,53.7 L43.5,42.4 Z M38,17.2 L45.2,17.2 L45.2,12.5 L50.2,12.5 L50.2,27.6 L53.2,27.6 L53.2,9.5 L36.5,9.5 L36.5,12.5 L42.2,12.5 L42.2,14.2 L35,14.2 L35,24 L38,24 L38,17.2 Z M39.3,20.9 L45.6,20.9 L45.6,33.7 L48.6,33.7 L48.6,17.9 L39.3,17.9 L39.3,20.9 Z M53.2,31 L50.2,31 L50.2,35.6 L47,35.6 L47,38.6 L53.2,38.6 L53.2,31 Z M26.1,46.1 L32,46.1 L32,48.1 L35,48.1 L35,43.1 L23.1,43.1 L23.1,52.2 L26.1,52.2 L26.1,46.1 Z M38.4,35.6 L33.4,35.6 L33.4,38.6 L38.4,38.6 L38.4,35.6 Z M38,25.6 L35,25.6 L35,28.9 L38,28.9 L38,25.6 Z M43.1,25.5 L43.1,22.5 L40.1,22.5 L40.1,25.5 L43.1,25.5 Z M36,40.9 L36,50 L39,50 L39,40.9 L36,40.9 Z M14.6,39.4 L14.6,42.4 L18,42.4 L18,39.4 L14.6,39.4 Z M50.2,75.5 L38,75.5 L38,56.1 L35,56.1 L35,78.5 L53.2,78.5 L53.2,69.4 L50.2,69.4 L50.2,75.5 Z M49.1,62.5 L40.2,62.5 L40.2,73.4 L43.2,73.4 L43.2,65.5 L46.1,65.5 L46.1,71.6 L49.1,71.6 L49.1,62.5 Z M44.6,57.6 L40.1,57.6 L40.1,60.6 L44.6,60.6 L44.6,57.6 Z M48.5,50 L45.5,50 L45.5,59.2 L48.5,59.2 L48.5,50 Z M47,48.1 L54.9,48.1 L54.9,45.1 L47,45.1 L47,48.1 Z M53.2,43.9 L53.2,40.9 L50.2,40.9 L50.2,43.9 L53.2,43.9 Z M51,56.1 L59.3,56.1 L59.3,53.1 L51,53.1 L51,56.1 Z M45.4,74.9 L47.5,74.9 L47.5,71.9 L45.4,71.9 L45.4,74.9 Z M55.5,35.1 L55.5,50 L58.5,50 L58.5,35.1 L55.5,35.1 Z M64,35.6 L60.6,35.6 L60.6,38.6 L64,38.6 L64,35.6 Z M64.6,37.1 L64.6,59.2 L67.6,59.2 L67.6,37.1 L64.6,37.1 Z M60.1,46.9 L60.8,46.9 L60.8,56.1 L63.8,56.1 L63.8,43.9 L60.1,43.9 L60.1,46.9 Z M63.8,42.4 L63.8,40.9 L60.8,40.9 L60.8,42.4 L63.8,42.4 Z M51.7,60.6 L61.2,60.6 L61.2,57.6 L51.7,57.6 L51.7,60.6 Z M53.2,62.9 L50.2,62.9 L50.2,68.1 L59.1,68.1 L59.1,78.9 L62.1,78.9 L62.1,65.1 L53.2,65.1 L53.2,62.9 Z M55.5,77 L58.5,77 L58.5,72 L55.5,72 L55.5,77 Z M70.8,61.4 L60.6,61.4 L60.6,64.4 L73.9,64.4 L73.9,56.1 L78.8,56.1 L78.8,53.1 L70.9,53.1 L70.9,61.4 L70.8,61.4 Z M71.1,39.5 L68.1,39.5 L68.1,49.4 L71.1,49.4 L71.1,39.5 Z M68.2,36.6 L78.7,36.6 L78.7,33.6 L68.2,33.6 L68.2,36.6 Z M73.4,39.4 L73.4,42.4 L75.8,42.4 L75.8,39.4 L73.4,39.4 Z M73.4,46.9 L78.7,46.9 L78.7,43.9 L73.4,43.9 L73.4,46.9 Z M75.5,48.4 L75.5,49.7 L72.6,49.7 L72.6,52.7 L78.5,52.7 L78.5,48.4 L75.5,48.4 Z M77.6,59.6 L74.6,59.6 L74.6,67.6 L64.6,67.6 L64.6,77 L67.6,77 L67.6,70.6 L77.6,70.6 L77.6,59.6 Z M70.3,79 L79,79 L79,76 L70.3,76 L70.3,79 Z M74.6,74.9 L74.6,71.9 L71,71.9 L71,74.9 L74.6,74.9 Z M87.2,70.7 L83.2,70.7 L83.2,83.2 L70.7,83.2 L70.7,87.2 L87.2,87.2 L87.2,70.7 Z M17.3,83.2 L4.8,83.2 L4.8,70.7 L0.8,70.7 L0.8,87.2 L17.3,87.2 L17.3,83.2 Z M4.8,4.8 L17.3,4.8 L17.3,0.8 L0.8,0.8 L0.8,17.3 L4.8,17.3 L4.8,4.8 Z M87.2,0.8 L70.7,0.8 L70.7,4.8 L83.2,4.8 L83.2,17.3 L87.2,17.3 L87.2,0.8 Z"></path>
        </g>
        <g id="arrow" transform="translate(211.000000, 87.500000) scale(-1, 1) translate(-211.000000, -87.500000) translate(190.000000, 59.000000)" fill="#000000" fill-rule="nonzero">
            <path d="M26.8675426,9.61547983 C25.7194864,10.1391868 24.535039,10.6192515 23.4295914,11.1959111 C17.7032082,14.1788586 12.0170563,17.2112674 6.26269404,20.1594466 C5.29717499,20.6163107 4.21879213,20.90152 3.10160761,20.9954866 C1.95270206,21.0912531 0.87118244,20.5476643 0.48657025,19.6811276 C-0.0133134292,18.9002807 0.142361808,17.955229 0.878277246,17.303207 C1.91149131,16.3897748 3.02242501,15.5266767 4.16042344,14.6942735 C10.1276569,10.2216446 16.662839,6.25426659 23.6607388,2.8560232 C26.4575923,1.44698964 29.5802256,0.496814532 32.8451889,0.0613192064 C35.3335545,-0.163689751 37.8482079,0.233903477 40.0392847,1.19878163 C41.6709184,1.94725776 42.4018731,3.51357393 41.7794732,4.92772065 C40.8880676,7.45268556 39.8331468,9.93929723 38.6189354,12.3775976 C35.6448176,18.2743522 33.1725108,24.3235262 31.2187454,30.4841838 C30.6518492,32.2500946 29.0226626,33.1267219 27.3505016,32.5397337 C25.8999788,32.0305741 25.3926981,30.9485373 25.9283236,29.3937096 C26.5317938,27.6432191 27.1138682,25.8863277 27.8080417,24.1583857 C29.3322611,20.3645652 30.9208505,16.5870378 32.4843869,12.803255 C32.6756539,12.4237458 32.7713986,12.0180564 32.7661892,11.6092031 C32.5357448,11.742702 32.318974,11.8905309 32.1179159,12.0512991 C23.8275473,19.4855443 16.9476818,27.8438573 11.6964857,36.8611889 C9.21164672,41.1659959 7.36929605,45.6875499 6.20710164,50.333405 C6.03252834,51.425352 5.95492118,52.5257295 5.97485706,53.6263579 C5.95455852,54.014192 6.03319251,54.4079906 5.98052602,54.7916059 C5.87135448,55.9387031 4.7454396,56.8590655 3.30697034,56.9770642 C1.89654319,57.1421999 0.570942155,56.398883 0.29236258,55.2866545 C-0.0732987829,53.7637615 -0.0961463669,52.2013164 0.224883644,50.6720688 C1.17551433,47.1599866 2.39962694,43.698302 3.89014196,40.3070352 C9.18352045,29.4986281 16.7420752,19.4823542 26.2445054,10.6839875 C26.5255762,10.4099142 26.7878114,10.1236211 27.0590073,9.84300141 L26.8675426,9.61547983 Z" id="Shape"></path>
        </g>
        <text id="Tap-here-to-Scan" font-family="Verdana" font-size="9" font-weight="normal" letter-spacing="2.76" fill="#4A4A4A">
            <tspan x="158" y="133">Tap here to Scan</tspan>
            <tspan x="278.365566" y="133" letter-spacing="8.461541"> </tspan>
        </text>
    </g>
</svg>