<svg height='200' width='200'  fill="#000000" xmlns="http://www.w3.org/2000/svg" xmlns:xlink="http://www.w3.org/1999/xlink" version="1.1" x="0px" y="0px" viewBox="0 0 100 100" style="enable-background:new 0 0 100 100;" xml:space="preserve"><path d="M23,69h8v8h-8V69z M15,61h24v24H15V61z M19,81h16V65H19V81z M77,23h-8v8h8V23z M85,15v24H61V15H85z M81,19H65v16h16V19z   M31,23h-8v8h8V23z M39,39H15V15h24V39z M35,19H19v16h16V19z M37,41.6H15.5v16.7h3V44.6H37V41.6z M24.3,57.2v-8.1h-4.8v3h1.8v5.1  H24.3z M28.5,48.4h12.9v-3H25.5v12.8h3V48.4z M49.5,48.4h5.3v-3h-5.3V32.7h-3v4.3h-4v3h4v16.7H35.7v-3.2h-3v6.2h16.8V48.4z M44,23.2  h7.2v-4.7h5v15.1h3V15.5H42.5v3h5.7v1.7H41V30h3V23.2z M45.3,26.9h6.3v12.8h3V23.9h-9.3V26.9z M59.2,37h-3v4.6H53v3h6.2V37z   M32.1,52.1H38v2h3v-5H29.1v9.1h3V52.1z M44.4,41.6h-5v3h5V41.6z M44,31.6h-3v3.3h3V31.6z M49.1,31.5v-3h-3v3H49.1z M42,46.9V56h3  v-9.1H42z M20.6,45.4v3H24v-3H20.6z M56.2,81.5H44V62.1h-3v22.4h18.2v-9.1h-3V81.5z M55.1,68.5h-8.9v10.9h3v-7.9h2.9v6.1h3V68.5z   M50.6,63.6h-4.5v3h4.5V63.6z M54.5,56h-3v9.2h3V56z M53,54.1h7.9v-3H53V54.1z M59.2,49.9v-3h-3v3H59.2z M57,62.1h8.3v-3H57V62.1z   M51.4,80.9h2.1v-3h-2.1V80.9z M61.5,41.1V56h3V41.1H61.5z M70,41.6h-3.4v3H70V41.6z M70.6,43.1v22.1h3V43.1H70.6z M66.1,52.9h0.7  v9.2h3V49.9h-3.7V52.9z M69.8,48.4v-1.5h-3v1.5H69.8z M57.7,66.6h9.5v-3h-9.5V66.6z M59.2,68.9h-3v5.2h8.9v10.8h3V71.1h-8.9V68.9z   M61.5,83h3v-5h-3V83z M76.8,67.4H66.6v3h13.3v-8.3h4.9v-3h-7.9V67.4z M77.1,45.5h-3v9.9h3V45.5z M74.2,42.6h10.5v-3H74.2V42.6z   M79.4,45.4v3h2.4v-3H79.4z M79.4,52.9h5.3v-3h-5.3V52.9z M81.5,54.4v1.3h-2.9v3h5.9v-4.3H81.5z M83.6,65.6h-3v8h-10V83h3v-6.4h10  V65.6z M76.3,85H85v-3h-8.7V85z M80.6,80.9v-3h-3.6v3H80.6z M93.2,76.7h-4v12.5H76.7v4h16.5V76.7z M23.3,89.2H10.8V76.7h-4v16.5  h16.5V89.2z M10.8,10.8h12.5v-4H6.8v16.5h4V10.8z M93.2,6.8H76.7v4h12.5v12.5h4V6.8z"></path></svg>